<?xml version="1.0" encoding="iso-8859-1"?>
<!-- Generator: Adobe Illustrator 18.1.1, SVG Export Plug-In . SVG Version: 6.00 Build 0)  -->
<svg version="1.1" id="Capa_1" xmlns="http://www.w3.org/2000/svg" xmlns:xlink="http://www.w3.org/1999/xlink" x="0px" y="0px"
	 viewBox="0 0 283.201 283.201" style="enable-background:new 0 0 283.201 283.201;" xml:space="preserve">
<g>
	<path style="fill:#010002;" d="M75.037,216.638c0,36.763,29.801,66.563,66.563,66.563s66.563-29.801,66.563-66.563
		c0-22.153-10.867-41.718-27.511-53.82l7.174-140.736C188.453,9.888,179.059,0,166.849,0h-50.502
		c-12.211,0-21.609,9.888-20.978,22.083l7.18,140.736C85.905,174.915,75.037,194.485,75.037,216.638z M125.283,190.302V67.537
		c0-12.015,7.305-21.756,16.317-21.756s16.317,9.741,16.317,21.756v122.765c9.219,5.553,15.414,15.626,15.414,27.174
		c0,17.525-14.207,31.726-31.731,31.726s-31.732-14.207-31.732-31.726C109.869,205.928,116.064,195.85,125.283,190.302z"/>
</g>
<g>
</g>
<g>
</g>
<g>
</g>
<g>
</g>
<g>
</g>
<g>
</g>
<g>
</g>
<g>
</g>
<g>
</g>
<g>
</g>
<g>
</g>
<g>
</g>
<g>
</g>
<g>
</g>
<g>
</g>
</svg>
